<svg id="visual" viewBox="0 0 900 600" width="900" height="600" xmlns="http://www.w3.org/2000/svg" xmlns:xlink="http://www.w3.org/1999/xlink" version="1.1"><rect x="0" y="0" width="900" height="600" fill="#ffffff"></rect><g transform="translate(527.067316597218 197.11337723143322)"><path d="M51.7 -88.1C74.3 -76.4 105.1 -77.4 122.2 -64.9C139.3 -52.3 142.7 -26.2 135.9 -3.9C129.1 18.3 112.2 36.7 131.6 112.4C151 188.2 206.8 321.4 190.9 330.4C175 339.4 87.5 224.2 19.1 191.2C-49.3 158.1 -98.7 207.2 -98.7 189.1C-98.7 170.9 -49.3 85.5 -91.5 42.7C-133.7 0 -267.3 0 -320.2 -30.5C-373 -61 -345 -122 -279.9 -125C-214.8 -128.1 -112.7 -73.1 -59.8 -67.5C-7 -61.8 -3.5 -105.4 5.5 -114.9C14.5 -124.4 29 -99.9 51.7 -88.1" fill="#cccccc"></path></g></svg>